# xmcd
#
# Track frame offsets: 
#        150
#        15932
#        43625
#        64440
#        83857
#        98715
#        115757
#        138510
#        154830
#        171425
#
# Disc length: 2683 seconds
#
# Revision: 4
# Processed by: cddbd v1.5.2PL0 Copyright (c) Steve Scherf et al.
# Submitted via: ExactAudioCopyFreeDBPlugin 1.0
#
DISCID=7e0a790a
DTITLE=Eddy Clearwater - The Chief
DYEAR=1980
DGENRE=Blues
TTITLE0=Find You A Job
TTITLE1=Blues For Breakfast
TTITLE2=Blue, Blue, Blue All Over You
TTITLE3=One Day At A Time
TTITLE4=I Wouldn't Lay My Guitar Down
TTITLE5=Chills
TTITLE6=Bad Dream
TTITLE7=I'm Tore Up
TTITLE8=Lazy Woman
TTITLE9=Blues For A Living
EXTD=
EXTT0=
EXTT1=
EXTT2=
EXTT3=
EXTT4=
EXTT5=
EXTT6=
EXTT7=
EXTT8=
EXTT9=
PLAYORDER=
